<svg width="1600" height="1200" viewBox="0 0 1600 1200" fill="none" xmlns="http://www.w3.org/2000/svg">
  <rect width="1600" height="1200" fill="#030712"/>
  <g opacity="0.9">
    <circle cx="258" cy="220" r="340" fill="url(#paint0_radial)" />
    <circle cx="1334" cy="224" r="310" fill="url(#paint1_radial)" />
    <circle cx="780" cy="930" r="420" fill="url(#paint2_radial)" />
  </g>
  <g opacity="0.35" filter="url(#filter0_f)">
    <path d="M-72 920C180 698 418 638 654 720C880 798 1124 1122 1670 842V1200H-72V920Z" fill="url(#paint3_linear)"/>
  </g>
  <g opacity="0.34">
    <path d="M140 908C282 760 456 684 662 702C858 718 1056 868 1248 858C1374 852 1484 804 1600 724" stroke="url(#paint4_linear)" stroke-width="2"/>
    <path d="M0 770C220 652 414 608 640 640C864 672 1030 822 1242 830C1362 836 1486 796 1600 736" stroke="url(#paint5_linear)" stroke-width="2"/>
    <path d="M132 1012C320 836 536 780 772 812C1002 840 1180 984 1402 972C1482 968 1548 944 1600 918" stroke="url(#paint6_linear)" stroke-width="2"/>
  </g>
  <g opacity="0.16">
    <rect x="126" y="122" width="1348" height="956" rx="36" stroke="url(#paint7_linear)" stroke-width="2"/>
    <rect x="168" y="168" width="1264" height="864" rx="28" stroke="url(#paint8_linear)"/>
  </g>
  <g opacity="0.2">
    <path d="M228 190H638" stroke="white" stroke-width="2" stroke-linecap="round"/>
    <path d="M964 252H1366" stroke="white" stroke-width="2" stroke-linecap="round"/>
    <path d="M1098 938H1370" stroke="white" stroke-width="2" stroke-linecap="round"/>
  </g>
  <defs>
    <filter id="filter0_f" x="-212" y="564" width="2022" height="776" filterUnits="userSpaceOnUse" color-interpolation-filters="sRGB">
      <feFlood flood-opacity="0" result="BackgroundImageFix"/>
      <feBlend mode="normal" in="SourceGraphic" in2="BackgroundImageFix" result="shape"/>
      <feGaussianBlur stdDeviation="70" result="effect1_foregroundBlur"/>
    </filter>
    <radialGradient id="paint0_radial" cx="0" cy="0" r="1" gradientUnits="userSpaceOnUse" gradientTransform="translate(258 220) rotate(90) scale(340)">
      <stop stop-color="#10B981"/>
      <stop offset="1" stop-color="#10B981" stop-opacity="0"/>
    </radialGradient>
    <radialGradient id="paint1_radial" cx="0" cy="0" r="1" gradientUnits="userSpaceOnUse" gradientTransform="translate(1334 224) rotate(90) scale(310)">
      <stop stop-color="#38BDF8"/>
      <stop offset="1" stop-color="#38BDF8" stop-opacity="0"/>
    </radialGradient>
    <radialGradient id="paint2_radial" cx="0" cy="0" r="1" gradientUnits="userSpaceOnUse" gradientTransform="translate(780 930) rotate(90) scale(420)">
      <stop stop-color="#EC5B13"/>
      <stop offset="1" stop-color="#EC5B13" stop-opacity="0"/>
    </radialGradient>
    <linearGradient id="paint3_linear" x1="178" y1="706" x2="1322" y2="1114" gradientUnits="userSpaceOnUse">
      <stop stop-color="#0F766E"/>
      <stop offset="0.5" stop-color="#111827"/>
      <stop offset="1" stop-color="#7C3AED"/>
    </linearGradient>
    <linearGradient id="paint4_linear" x1="140" y1="766" x2="1600" y2="766" gradientUnits="userSpaceOnUse">
      <stop stop-color="#10B981" stop-opacity="0"/>
      <stop offset="0.5" stop-color="white"/>
      <stop offset="1" stop-color="#38BDF8" stop-opacity="0"/>
    </linearGradient>
    <linearGradient id="paint5_linear" x1="0" y1="716" x2="1600" y2="716" gradientUnits="userSpaceOnUse">
      <stop stop-color="#10B981" stop-opacity="0"/>
      <stop offset="0.5" stop-color="#EC5B13"/>
      <stop offset="1" stop-color="#A855F7" stop-opacity="0"/>
    </linearGradient>
    <linearGradient id="paint6_linear" x1="132" y1="900" x2="1600" y2="900" gradientUnits="userSpaceOnUse">
      <stop stop-color="#38BDF8" stop-opacity="0"/>
      <stop offset="0.5" stop-color="white"/>
      <stop offset="1" stop-color="#EC5B13" stop-opacity="0"/>
    </linearGradient>
    <linearGradient id="paint7_linear" x1="126" y1="122" x2="1474" y2="1078" gradientUnits="userSpaceOnUse">
      <stop stop-color="white" stop-opacity="0.18"/>
      <stop offset="1" stop-color="white" stop-opacity="0.02"/>
    </linearGradient>
    <linearGradient id="paint8_linear" x1="168" y1="168" x2="1432" y2="1032" gradientUnits="userSpaceOnUse">
      <stop stop-color="white" stop-opacity="0.16"/>
      <stop offset="1" stop-color="#10B981" stop-opacity="0.02"/>
    </linearGradient>
  </defs>
</svg>
