<svg width="520" height="900" viewBox="0 0 520 900" fill="none" xmlns="http://www.w3.org/2000/svg">
  <rect width="520" height="900" rx="32" fill="#030712"/>
  <circle cx="410" cy="132" r="182" fill="url(#paint0_radial)"/>
  <circle cx="98" cy="764" r="186" fill="url(#paint1_radial)"/>
  <path d="M90 722C154 650 200 548 250 482C300 416 340 350 430 240" stroke="url(#paint2_linear)" stroke-width="6" stroke-linecap="round"/>
  <path d="M120 750C182 690 226 604 274 544C332 470 370 400 438 316" stroke="white" stroke-opacity="0.22" stroke-width="2" stroke-linecap="round"/>
  <path d="M90 214H226" stroke="white" stroke-opacity="0.28" stroke-width="2" stroke-linecap="round"/>
  <path d="M90 790H430" stroke="white" stroke-opacity="0.14" stroke-width="2" stroke-linecap="round"/>
  <rect x="64" y="82" width="392" height="736" rx="26" stroke="white" stroke-opacity="0.08" stroke-width="2"/>
  <defs>
    <radialGradient id="paint0_radial" cx="0" cy="0" r="1" gradientUnits="userSpaceOnUse" gradientTransform="translate(410 132) rotate(90) scale(182)">
      <stop stop-color="#6366F1"/>
      <stop offset="1" stop-color="#6366F1" stop-opacity="0"/>
    </radialGradient>
    <radialGradient id="paint1_radial" cx="0" cy="0" r="1" gradientUnits="userSpaceOnUse" gradientTransform="translate(98 764) rotate(90) scale(186)">
      <stop stop-color="#10B981"/>
      <stop offset="1" stop-color="#10B981" stop-opacity="0"/>
    </radialGradient>
    <linearGradient id="paint2_linear" x1="90" y1="722" x2="430" y2="240" gradientUnits="userSpaceOnUse">
      <stop stop-color="#10B981"/>
      <stop offset="0.5" stop-color="white"/>
      <stop offset="1" stop-color="#6366F1"/>
    </linearGradient>
  </defs>
</svg>
