<svg width="900" height="520" viewBox="0 0 900 520" fill="none" xmlns="http://www.w3.org/2000/svg">
  <rect width="900" height="520" rx="32" fill="#030712"/>
  <circle cx="188" cy="114" r="172" fill="url(#paint0_radial)"/>
  <circle cx="756" cy="426" r="204" fill="url(#paint1_radial)"/>
  <path d="M108 382C184 344 236 260 314 260C390 260 432 372 510 372C590 372 618 202 704 202C766 202 798 272 842 308" stroke="url(#paint2_linear)" stroke-width="8" stroke-linecap="round"/>
  <path d="M106 350C180 318 240 214 310 214C396 214 422 328 514 328C596 328 620 138 706 138C768 138 798 196 840 240" stroke="white" stroke-opacity="0.24" stroke-width="3" stroke-linecap="round"/>
  <rect x="76" y="62" width="748" height="396" rx="28" stroke="white" stroke-opacity="0.09" stroke-width="2"/>
  <defs>
    <radialGradient id="paint0_radial" cx="0" cy="0" r="1" gradientUnits="userSpaceOnUse" gradientTransform="translate(188 114) rotate(90) scale(172)">
      <stop stop-color="#EC5B13"/>
      <stop offset="1" stop-color="#EC5B13" stop-opacity="0"/>
    </radialGradient>
    <radialGradient id="paint1_radial" cx="0" cy="0" r="1" gradientUnits="userSpaceOnUse" gradientTransform="translate(756 426) rotate(90) scale(204)">
      <stop stop-color="#A855F7"/>
      <stop offset="1" stop-color="#A855F7" stop-opacity="0"/>
    </radialGradient>
    <linearGradient id="paint2_linear" x1="108" y1="290" x2="842" y2="290" gradientUnits="userSpaceOnUse">
      <stop stop-color="#EC5B13" stop-opacity="0.2"/>
      <stop offset="0.5" stop-color="white"/>
      <stop offset="1" stop-color="#A855F7" stop-opacity="0.25"/>
    </linearGradient>
  </defs>
</svg>
