<svg width="100" height="100" xmlns="http://www.w3.org/2000/center"><rect width="100" height="100" fill="none"/><line x1="59" y1="86" x2="77" y2="86" stroke="#10b981" stroke-width="0.5" stroke-opacity="0.2" /><circle cx="77" cy="86" r="1" fill="#3b82f6" fill-opacity="0.4" /><line x1="26" y1="55" x2="48" y2="55" stroke="#10b981" stroke-width="0.5" stroke-opacity="0.2" /><circle cx="48" cy="55" r="1" fill="#3b82f6" fill-opacity="0.4" /><line x1="55" y1="95" x2="69" y2="95" stroke="#10b981" stroke-width="0.5" stroke-opacity="0.2" /><circle cx="69" cy="95" r="1" fill="#3b82f6" fill-opacity="0.4" /><line x1="26" y1="23" x2="44" y2="23" stroke="#10b981" stroke-width="0.5" stroke-opacity="0.2" /><circle cx="44" cy="23" r="1" fill="#3b82f6" fill-opacity="0.4" /><line x1="39" y1="29" x2="50" y2="29" stroke="#10b981" stroke-width="0.5" stroke-opacity="0.2" /><circle cx="50" cy="29" r="1" fill="#3b82f6" fill-opacity="0.4" /><line x1="34" y1="75" x2="34" y2="97" stroke="#10b981" stroke-width="0.5" stroke-opacity="0.2" /><circle cx="34" cy="97" r="1" fill="#3b82f6" fill-opacity="0.4" /><line x1="99" y1="1" x2="99" y2="16" stroke="#10b981" stroke-width="0.5" stroke-opacity="0.2" /><circle cx="99" cy="16" r="1" fill="#3b82f6" fill-opacity="0.4" /><line x1="58" y1="89" x2="79" y2="89" stroke="#10b981" stroke-width="0.5" stroke-opacity="0.2" /><circle cx="79" cy="89" r="1" fill="#3b82f6" fill-opacity="0.4" /><line x1="10" y1="48" x2="25" y2="48" stroke="#10b981" stroke-width="0.5" stroke-opacity="0.2" /><circle cx="25" cy="48" r="1" fill="#3b82f6" fill-opacity="0.4" /><line x1="99" y1="95" x2="110" y2="95" stroke="#10b981" stroke-width="0.5" stroke-opacity="0.2" /><circle cx="110" cy="95" r="1" fill="#3b82f6" fill-opacity="0.4" /><line x1="97" y1="65" x2="97" y2="80" stroke="#10b981" stroke-width="0.5" stroke-opacity="0.2" /><circle cx="97" cy="80" r="1" fill="#3b82f6" fill-opacity="0.4" /><line x1="74" y1="86" x2="98" y2="86" stroke="#10b981" stroke-width="0.5" stroke-opacity="0.2" /><circle cx="98" cy="86" r="1" fill="#3b82f6" fill-opacity="0.4" /><line x1="72" y1="30" x2="96" y2="30" stroke="#10b981" stroke-width="0.5" stroke-opacity="0.2" /><circle cx="96" cy="30" r="1" fill="#3b82f6" fill-opacity="0.4" /><line x1="84" y1="43" x2="101" y2="43" stroke="#10b981" stroke-width="0.5" stroke-opacity="0.2" /><circle cx="101" cy="43" r="1" fill="#3b82f6" fill-opacity="0.4" /><line x1="89" y1="67" x2="105" y2="67" stroke="#10b981" stroke-width="0.5" stroke-opacity="0.2" /><circle cx="105" cy="67" r="1" fill="#3b82f6" fill-opacity="0.4" /><line x1="43" y1="38" x2="43" y2="52" stroke="#10b981" stroke-width="0.5" stroke-opacity="0.2" /><circle cx="43" cy="52" r="1" fill="#3b82f6" fill-opacity="0.4" /><line x1="13" y1="49" x2="27" y2="49" stroke="#10b981" stroke-width="0.5" stroke-opacity="0.2" /><circle cx="27" cy="49" r="1" fill="#3b82f6" fill-opacity="0.4" /><line x1="22" y1="55" x2="22" y2="67" stroke="#10b981" stroke-width="0.5" stroke-opacity="0.2" /><circle cx="22" cy="67" r="1" fill="#3b82f6" fill-opacity="0.4" /><line x1="51" y1="71" x2="71" y2="71" stroke="#10b981" stroke-width="0.5" stroke-opacity="0.2" /><circle cx="71" cy="71" r="1" fill="#3b82f6" fill-opacity="0.4" /><line x1="3" y1="36" x2="3" y2="47" stroke="#10b981" stroke-width="0.5" stroke-opacity="0.2" /><circle cx="3" cy="47" r="1" fill="#3b82f6" fill-opacity="0.4" /></svg>
